<?xml version="1.0" encoding="UTF-8"?>
<svg version="1.1" xmlns="http://www.w3.org/2000/svg" width="64" height="64">
<path d="M0 0 C3.5060303 0.86943897 4.94966563 2.56083702 6.9375 5.48046875 C7.46262999 9.75652722 7.28146354 12.81802572 4.9375 16.48046875 C5.9275 16.81046875 6.9175 17.14046875 7.9375 17.48046875 C9.19987731 20.00522337 9.03606404 21.79247341 9 24.60546875 C8.99097656 25.51554687 8.98195312 26.425625 8.97265625 27.36328125 C8.96105469 28.06195312 8.94945312 28.760625 8.9375 29.48046875 C10.5875 29.15046875 12.2375 28.82046875 13.9375 28.48046875 C14.15877081 24.51304069 14.15877081 24.51304069 12.75 21.10546875 C11.9375 17.48046875 11.9375 17.48046875 13.0625 14.16796875 C15.80048259 10.24352704 15.80048259 10.24352704 18.9375 9.48046875 C22.77029068 9.42615795 25.86549654 9.64296605 28.9375 12.04296875 C30.82025629 16.63218722 30.46552731 20.89638681 28.9375 25.48046875 C28.6075 26.14046875 28.2775 26.80046875 27.9375 27.48046875 C28.2675 27.81046875 28.5975 28.14046875 28.9375 28.48046875 C29.02470828 30.15299224 29.04449405 31.82913674 29.03515625 33.50390625 C29.03193359 34.52484375 29.02871094 35.54578125 29.02539062 36.59765625 C29.01282227 38.21027344 29.01282227 38.21027344 29 39.85546875 C28.99548828 40.9228125 28.99097656 41.99015625 28.98632812 43.08984375 C28.97757868 45.07471815 28.96678716 47.05958526 28.95336914 49.04443359 C28.79844028 52.89187831 28.79844028 52.89187831 29.9375 56.48046875 C29.9375 59.12046875 29.9375 61.76046875 29.9375 64.48046875 C8.8175 64.48046875 -12.3025 64.48046875 -34.0625 64.48046875 C-34.0625 55.48046875 -34.0625 55.48046875 -32.0625 52.48046875 C-32.3925 52.15046875 -32.7225 51.82046875 -33.0625 51.48046875 C-33.14973226 49.81967907 -33.16949198 48.15524032 -33.16015625 46.4921875 C-33.15693359 45.47576172 -33.15371094 44.45933594 -33.15039062 43.41210938 C-33.14201172 42.34154297 -33.13363281 41.27097656 -33.125 40.16796875 C-33.12048828 39.10900391 -33.11597656 38.05003906 -33.11132812 36.95898438 C-33.10258883 34.9826548 -33.09180413 33.00633253 -33.07836914 31.0300293 C-32.85569634 26.61987247 -32.85569634 26.61987247 -34.0625 22.48046875 C-34.50849303 15.56757676 -34.50849303 15.56757676 -33.0625 12.04296875 C-30.00835586 9.65691864 -26.82523489 9.31143964 -23.0625 9.48046875 C-20.1875 10.48046875 -20.1875 10.48046875 -18.0625 12.48046875 C-16.49629378 16.15764858 -15.68261426 18.31367682 -16.9375 22.16796875 C-17.30875 22.93109375 -17.68 23.69421875 -18.0625 24.48046875 C-18.0625 25.80046875 -18.0625 27.12046875 -18.0625 28.48046875 C-16.4125 28.81046875 -14.7625 29.14046875 -13.0625 29.48046875 C-13.08570312 28.79339844 -13.10890625 28.10632813 -13.1328125 27.3984375 C-13.15085937 26.49738281 -13.16890625 25.59632812 -13.1875 24.66796875 C-13.21070312 23.77464844 -13.23390625 22.88132812 -13.2578125 21.9609375 C-13.0625 19.48046875 -13.0625 19.48046875 -11.0625 16.48046875 C-10.4025 16.48046875 -9.7425 16.48046875 -9.0625 16.48046875 C-9.3925 15.96484375 -9.7225 15.44921875 -10.0625 14.91796875 C-11.45684583 11.5192508 -11.51001559 9.12452427 -11.0625 5.48046875 C-8.01136975 0.99912119 -5.26455839 -0.36891792 0 0 Z M-7 5.16796875 C-8.34483625 8.09496529 -8.09365662 9.46631864 -7.0625 12.48046875 C-5.18111241 14.76977111 -5.18111241 14.76977111 -2.125 14.85546875 C0.97477981 14.76615744 0.97477981 14.76615744 2.875 12.79296875 C4.21983625 9.86597221 3.96865662 8.49461886 2.9375 5.48046875 C1.05611241 3.19116639 1.05611241 3.19116639 -2 3.10546875 C-5.09977981 3.19478006 -5.09977981 3.19478006 -7 5.16796875 Z M-29.25 13.60546875 C-31.3509656 15.41367648 -31.3509656 15.41367648 -31.5 18.48046875 C-31.2794765 21.41962099 -31.2794765 21.41962099 -29.875 23.35546875 C-27.40742892 24.88706459 -25.91730169 24.908689 -23.0625 24.48046875 C-21.12595052 23.46076557 -21.12595052 23.46076557 -20.0625 21.48046875 C-19.47916667 18.48046875 -19.47916667 18.48046875 -20.0625 15.48046875 C-21.7734211 13.50948449 -21.7734211 13.50948449 -24.0625 12.48046875 C-27.02782836 12.25179474 -27.02782836 12.25179474 -29.25 13.60546875 Z M17.75 13.60546875 C15.6490344 15.41367648 15.6490344 15.41367648 15.5 18.48046875 C15.7205235 21.41962099 15.7205235 21.41962099 17.125 23.35546875 C19.59257108 24.88706459 21.08269831 24.908689 23.9375 24.48046875 C25.87404948 23.46076557 25.87404948 23.46076557 26.9375 21.48046875 C27.52083333 18.48046875 27.52083333 18.48046875 26.9375 15.48046875 C25.2265789 13.50948449 25.2265789 13.50948449 22.9375 12.48046875 C19.97217164 12.25179474 19.97217164 12.25179474 17.75 13.60546875 Z M-8.0625 18.48046875 C-8.3925 19.47046875 -8.7225 20.46046875 -9.0625 21.48046875 C-8.0725 21.48046875 -7.0825 21.48046875 -6.0625 21.48046875 C-6.0625 24.12046875 -6.0625 26.76046875 -6.0625 29.48046875 C-3.4225 29.48046875 -0.7825 29.48046875 1.9375 29.48046875 C1.9375 26.84046875 1.9375 24.20046875 1.9375 21.48046875 C2.9275 21.48046875 3.9175 21.48046875 4.9375 21.48046875 C4.6075 20.49046875 4.2775 19.50046875 3.9375 18.48046875 C-0.0225 18.48046875 -3.9825 18.48046875 -8.0625 18.48046875 Z M-10.0625 21.48046875 C-10.0625 24.12046875 -10.0625 26.76046875 -10.0625 29.48046875 C-9.7325 29.48046875 -9.4025 29.48046875 -9.0625 29.48046875 C-9.0625 26.84046875 -9.0625 24.20046875 -9.0625 21.48046875 C-9.3925 21.48046875 -9.7225 21.48046875 -10.0625 21.48046875 Z M4.9375 21.48046875 C4.9375 24.12046875 4.9375 26.76046875 4.9375 29.48046875 C5.2675 29.48046875 5.5975 29.48046875 5.9375 29.48046875 C5.9375 26.84046875 5.9375 24.20046875 5.9375 21.48046875 C5.6075 21.48046875 5.2775 21.48046875 4.9375 21.48046875 Z M-28.73168945 28.70239258 C-30.41146829 30.94672009 -30.41144966 32.14930213 -30.35546875 34.9296875 C-30.34580078 35.77724609 -30.33613281 36.62480469 -30.32617188 37.49804688 C-30.30103516 38.37912109 -30.27589844 39.26019531 -30.25 40.16796875 C-30.23646484 41.06064453 -30.22292969 41.95332031 -30.20898438 42.87304688 C-30.17364079 45.07613041 -30.12430493 47.27799457 -30.0625 49.48046875 C-27.42127354 46.93435571 -25.81678095 45.16806452 -25.0625 41.48046875 C-26.12673024 38.88201827 -27.49052804 36.83842669 -29.0625 34.48046875 C-25.78539564 35.65086316 -25.08239575 36.44362477 -23.375 39.60546875 C-21.42945176 42.67253522 -21.42945176 42.67253522 -18.80859375 42.87109375 C-16.53249015 42.85684584 -14.32289828 42.74128394 -12.0625 42.48046875 C-12.0625 41.82046875 -12.0625 41.16046875 -12.0625 40.48046875 C-13.3 40.48046875 -14.5375 40.48046875 -15.8125 40.48046875 C-18.015625 40.234375 -18.015625 40.234375 -20.0625 39.48046875 C-21.96138271 37.01296457 -23.04793513 34.41069229 -24.0625 31.48046875 C-23.0725 31.15046875 -22.0825 30.82046875 -21.0625 30.48046875 C-22.37451173 28.91797066 -22.37451173 28.91797066 -24.0625 27.48046875 C-27.00382414 27.18512471 -27.00382414 27.18512471 -28.73168945 28.70239258 Z M18.25 28.98046875 C17.6003125 29.72296875 17.6003125 29.72296875 16.9375 30.48046875 C17.9275 30.81046875 18.9175 31.14046875 19.9375 31.48046875 C18.92293513 34.41069229 17.83638271 37.01296457 15.9375 39.48046875 C13.09988823 40.52561965 11.01959291 40.48046875 7.9375 40.48046875 C7.9375 41.14046875 7.9375 41.80046875 7.9375 42.48046875 C11.03797099 42.90602359 13.85488175 43.09181153 16.9375 42.48046875 C18.68715539 40.82021181 19.71544905 39.2208955 20.8671875 37.109375 C21.9375 35.48046875 21.9375 35.48046875 24.9375 34.48046875 C24.43476562 35.22490234 24.43476562 35.22490234 23.921875 35.984375 C22.61775971 38.15927613 21.61875275 40.0322167 20.9375 42.48046875 C21.80394634 45.3776487 23.08824425 47.01479442 24.9375 49.48046875 C25.2675 49.48046875 25.5975 49.48046875 25.9375 49.48046875 C26.02460289 46.37647897 26.07792309 43.27280327 26.125 40.16796875 C26.15013672 39.28689453 26.17527344 38.40582031 26.20117188 37.49804688 C26.21083984 36.65048828 26.22050781 35.80292969 26.23046875 34.9296875 C26.2461792 34.14940186 26.26188965 33.36911621 26.27807617 32.56518555 C25.8470481 29.92679939 25.07608594 29.0460125 22.9375 27.48046875 C19.93490483 27.14828683 19.93490483 27.14828683 18.25 28.98046875 Z M-16.93408203 33.87597656 C-18.25425508 35.42619753 -18.25425508 35.42619753 -18.0625 37.48046875 C-15.4225 37.81046875 -12.7825 38.14046875 -10.0625 38.48046875 C-8.9375 42.23046875 -8.9375 42.23046875 -10.0625 44.48046875 C-12.12378728 44.55419147 -14.18750143 44.56394331 -16.25 44.54296875 C-21.22360506 44.76899036 -21.22360506 44.76899036 -25.22265625 47.4375 C-27.36423508 50.6945941 -28.83088388 53.78562038 -30.0625 57.48046875 C-11.5825 57.48046875 6.8975 57.48046875 25.9375 57.48046875 C22.96600249 51.08502313 22.96600249 51.08502313 18.9375 45.48046875 C16.75457226 45.24565182 14.56546826 45.06683552 12.375 44.91796875 C11.17746094 44.83417969 9.97992188 44.75039063 8.74609375 44.6640625 C7.81925781 44.60347656 6.89242187 44.54289062 5.9375 44.48046875 C4.8125 40.73046875 4.8125 40.73046875 5.9375 38.48046875 C8.58610427 37.88691261 11.22947322 37.73837606 13.9375 37.48046875 C12.71742056 34.78991595 12.71742056 34.78991595 10.9375 32.48046875 C6.65258535 32.19895933 2.35555904 32.24864043 -1.9375 32.23046875 C-3.14792969 32.20984375 -4.35835937 32.18921875 -5.60546875 32.16796875 C-6.76433594 32.1628125 -7.92320313 32.15765625 -9.1171875 32.15234375 C-10.18437012 32.14299805 -11.25155273 32.13365234 -12.35107422 32.12402344 C-15.08287841 32.25873077 -15.08287841 32.25873077 -16.93408203 33.87597656 Z M-31.0625 60.48046875 C-31.0625 60.81046875 -31.0625 61.14046875 -31.0625 61.48046875 C-11.9225 61.48046875 7.2175 61.48046875 26.9375 61.48046875 C26.9375 61.15046875 26.9375 60.82046875 26.9375 60.48046875 C7.7975 60.48046875 -11.3425 60.48046875 -31.0625 60.48046875 Z " fill="#000000" transform="translate(34.0625,-0.48046875)"/>
</svg>
